# xmcd
#
# Track frame offsets:
#	150
#	12762
#	20846
#	32249
#	44412
#	56477
#	69866
#	81494
#	92185
#	104200
#	112378
#	123653
#	135106
#	146813
#	157121
#	170565
#	190236
#
# Disc length: 2960 seconds
#
# Revision: 0
# Processed by: cddbd v1.5.2PL0 Copyright (c) Steve Scherf et al.
# Submitted via: audiograbber 1.83.01
#
DISCID=fe0b8e11
DTITLE=Chuck Berry - The Ultimate Collection - Disc 3
DYEAR=2007
DGENRE=Blues
TTITLE0=Go Go Go
TTITLE1=Come On
TTITLE2=Nadine
TTITLE3=No Particular Place To Go
TTITLE4=You Never Can Tell
TTITLE5=Go Bobby Soxer
TTITLE6=Little Marie
TTITLE7=Promised Land
TTITLE8=The Things I Used To Do
TTITLE9=Dear Dad
TTITLE10=Lonely School Days
TTITLE11=It Wasn't Me
TTITLE12=Tulane
TTITLE13=Club Nitty Gritty
TTITLE14=It Hurts Me Too
TTITLE15=My Ding-A-Ling
TTITLE16=Reeling and Rocking (1972 Re-Recording)
EXTD=
EXTT0=
EXTT1=
EXTT2=
EXTT3=
EXTT4=
EXTT5=
EXTT6=
EXTT7=
EXTT8=
EXTT9=
EXTT10=
EXTT11=
EXTT12=
EXTT13=
EXTT14=
EXTT15=
EXTT16=
PLAYORDER=
